<?xml version="1.0" encoding="utf-8"?>
<!-- Generated by IcoMoon.io -->
<!DOCTYPE svg PUBLIC "-//W3C//DTD SVG 1.1//EN" "http://www.w3.org/Graphics/SVG/1.1/DTD/svg11.dtd">
<svg version="1.1" xmlns="http://www.w3.org/2000/svg" xmlns:xlink="http://www.w3.org/1999/xlink" width="32" height="32" viewBox="0 0 32 32">
<path d="M27 29l-1.999-0.062v2.062h-3v-2h-11.938l-0.062 2h-3v-1.938l-2.001-0.062c-1.104 0-2-0.896-2-2v-24c0-1.104 0.896-2 2-2h22c1.104 0 2 0.896 2 2v24c0 1.104-0.896 2-2 2zM26 4h-20v3.958l-0.979-0.020v3.083h0.979v7.917h-1v3.062h1v4h20v-22zM25 25h-18v-3h1v-3.062h-1v-7.938h1l0.021-3.042h-1.021v-2.958h18v20zM14.562 10.562c-2.209 0-4 1.791-4 4s1.791 4 4 4c2.21 0 4-1.791 4-4s-1.79-4-4-4zM23.5 11.518c0-0.553-0.447-1-1-1-0.552 0-1 0.447-1 1 0 0.366 0.207 0.673 0.5 0.847v5.289c-0.293 0.174-0.5 0.48-0.5 0.847 0 0.552 0.448 1 1 1 0.553 0 1-0.448 1-1 0-0.394-0.232-0.726-0.562-0.889v-5.205c0.33-0.164 0.562-0.496 0.562-0.889zM14.5 16.25c-0.828 0-1.5-0.672-1.5-1.5 0-0.829 0.672-1.5 1.5-1.5 0.829 0 1.5 0.671 1.5 1.5 0 0.828-0.671 1.5-1.5 1.5z"></path>
</svg>
